# xmcd CD database file
# Copyright (C) 1993-1998 Ti Kan
#
# Track frame offsets:
#	150
#	15432
#	28527
#	59330
#	75742
#	101967
#	122102
#	134890
#	156672
#
# Disc length: 2364 seconds
#
# Revision: 1
# Processed by: cddbd v1.4b41PL1 Copyright (c) Steve Scherf et al.
# Submitted via: CDValet v3.31 - Copyright (c) 1997 Greg Leichner
#
DISCID=7d093a09
DTITLE=Auntie Kate - Food For Thought
DYEAR=1900
DGENRE=
TTITLE0=Snatchin' It Back
TTITLE1=Small Potatoes
TTITLE2=Body and Fender Man
TTITLE3=I Won't Cry
TTITLE4=Thank You (Fallettin Me Be Mice Elf Agin)
TTITLE5=Full Moon
TTITLE6=Love You Like A Woman
TTITLE7=Party
TTITLE8=I Can't Help Sing The Blues
EXTD=
EXTT0=
EXTT1=
EXTT2=
EXTT3=
EXTT4=
EXTT5=
EXTT6=
EXTT7=
EXTT8=
PLAYORDER=
